<mxfile host="app.diagrams.net" agent="Mozilla/5.0 (Windows NT 10.0; Win64; x64) AppleWebKit/537.36 (KHTML, like Gecko) Chrome/132.0.0.0 Safari/537.36 OPR/117.0.0.0" version="26.2.7">
  <diagram name="Página-1" id="l31rmTh8YSDLASnfmswV">
    <mxGraphModel dx="833" dy="1622" grid="1" gridSize="10" guides="1" tooltips="1" connect="1" arrows="1" fold="1" page="1" pageScale="1" pageWidth="827" pageHeight="1169" math="0" shadow="0">
      <root>
        <mxCell id="0" />
        <mxCell id="1" parent="0" />
        <mxCell id="gaeVgK7eJ6ZGuBYZR13r-6" value="" style="edgeStyle=orthogonalEdgeStyle;rounded=0;orthogonalLoop=1;jettySize=auto;html=1;" edge="1" parent="1" source="gaeVgK7eJ6ZGuBYZR13r-1" target="gaeVgK7eJ6ZGuBYZR13r-5">
          <mxGeometry relative="1" as="geometry" />
        </mxCell>
        <mxCell id="gaeVgK7eJ6ZGuBYZR13r-1" value="Início" style="rounded=1;whiteSpace=wrap;html=1;fontSize=12;glass=0;strokeWidth=1;shadow=0;" vertex="1" parent="1">
          <mxGeometry x="390" y="-1000" width="60" height="40" as="geometry" />
        </mxCell>
        <mxCell id="gaeVgK7eJ6ZGuBYZR13r-2" value="Fim" style="rounded=1;whiteSpace=wrap;html=1;fontSize=12;glass=0;strokeWidth=1;shadow=0;" vertex="1" parent="1">
          <mxGeometry x="390" y="-480" width="60" height="40" as="geometry" />
        </mxCell>
        <mxCell id="gaeVgK7eJ6ZGuBYZR13r-8" value="" style="edgeStyle=orthogonalEdgeStyle;rounded=0;orthogonalLoop=1;jettySize=auto;html=1;" edge="1" parent="1" source="gaeVgK7eJ6ZGuBYZR13r-5" target="gaeVgK7eJ6ZGuBYZR13r-7">
          <mxGeometry relative="1" as="geometry" />
        </mxCell>
        <mxCell id="gaeVgK7eJ6ZGuBYZR13r-5" value="&lt;div&gt;&lt;br&gt;&lt;/div&gt;&lt;div&gt;&lt;br&gt;&lt;/div&gt;Ler raio" style="shape=manualInput;whiteSpace=wrap;html=1;" vertex="1" parent="1">
          <mxGeometry x="375" y="-890" width="90" height="60" as="geometry" />
        </mxCell>
        <mxCell id="gaeVgK7eJ6ZGuBYZR13r-10" value="" style="edgeStyle=orthogonalEdgeStyle;rounded=0;orthogonalLoop=1;jettySize=auto;html=1;" edge="1" parent="1" source="gaeVgK7eJ6ZGuBYZR13r-7" target="gaeVgK7eJ6ZGuBYZR13r-9">
          <mxGeometry relative="1" as="geometry" />
        </mxCell>
        <mxCell id="gaeVgK7eJ6ZGuBYZR13r-7" value="perimetro = 2*3,14159*raio" style="whiteSpace=wrap;html=1;" vertex="1" parent="1">
          <mxGeometry x="330" y="-750" width="180" height="60" as="geometry" />
        </mxCell>
        <mxCell id="gaeVgK7eJ6ZGuBYZR13r-12" value="" style="edgeStyle=orthogonalEdgeStyle;rounded=0;orthogonalLoop=1;jettySize=auto;html=1;" edge="1" parent="1" source="gaeVgK7eJ6ZGuBYZR13r-9" target="gaeVgK7eJ6ZGuBYZR13r-11">
          <mxGeometry relative="1" as="geometry" />
        </mxCell>
        <mxCell id="gaeVgK7eJ6ZGuBYZR13r-9" value="area=3,14159*raio*raio" style="whiteSpace=wrap;html=1;" vertex="1" parent="1">
          <mxGeometry x="330" y="-610" width="180" height="60" as="geometry" />
        </mxCell>
        <mxCell id="gaeVgK7eJ6ZGuBYZR13r-14" value="" style="edgeStyle=orthogonalEdgeStyle;rounded=0;orthogonalLoop=1;jettySize=auto;html=1;" edge="1" parent="1" source="gaeVgK7eJ6ZGuBYZR13r-11" target="gaeVgK7eJ6ZGuBYZR13r-13">
          <mxGeometry relative="1" as="geometry" />
        </mxCell>
        <mxCell id="gaeVgK7eJ6ZGuBYZR13r-11" value="perimetro" style="shape=display;whiteSpace=wrap;html=1;" vertex="1" parent="1">
          <mxGeometry x="610" y="-600" width="80" height="40" as="geometry" />
        </mxCell>
        <mxCell id="gaeVgK7eJ6ZGuBYZR13r-15" style="edgeStyle=orthogonalEdgeStyle;rounded=0;orthogonalLoop=1;jettySize=auto;html=1;exitX=0;exitY=0.5;exitDx=0;exitDy=0;exitPerimeter=0;" edge="1" parent="1" source="gaeVgK7eJ6ZGuBYZR13r-13">
          <mxGeometry relative="1" as="geometry">
            <mxPoint x="470" y="-460" as="targetPoint" />
          </mxGeometry>
        </mxCell>
        <mxCell id="gaeVgK7eJ6ZGuBYZR13r-13" value="area" style="shape=display;whiteSpace=wrap;html=1;" vertex="1" parent="1">
          <mxGeometry x="610" y="-480" width="80" height="40" as="geometry" />
        </mxCell>
      </root>
    </mxGraphModel>
  </diagram>
</mxfile>
